# Blender v2.79 (sub 7) OBJ File: 'oven.blend'
# www.blender.org
mtllib oven.mtl
o model
v 0.312500 0.498031 0.452652
v 0.500000 0.498031 0.452652
v 0.500000 0.498031 -0.484848
v 0.312500 0.498031 -0.484848
v 0.500000 -0.501969 0.452652
v 0.312500 -0.501969 0.452652
v 0.312500 -0.501969 -0.484848
v 0.500000 -0.501969 -0.484848
v -0.500000 0.498031 0.452652
v -0.312500 0.498031 0.452652
v -0.312500 0.498031 -0.484848
v -0.500000 0.498031 -0.484848
v -0.312500 -0.501969 0.452652
v -0.500000 -0.501969 0.452652
v -0.500000 -0.501969 -0.484848
v -0.312500 -0.501969 -0.484848
v -0.500000 -0.251969 0.452652
v 0.500000 -0.251969 0.452652
v 0.500000 -0.251969 -0.484848
v -0.500000 -0.251969 -0.484848
v 0.500000 0.498031 -0.109848
v -0.500000 0.498031 -0.109848
v -0.500000 -0.501969 -0.109848
v 0.500000 -0.501969 -0.109848
v 0.500000 0.123031 0.452652
v -0.500000 0.123031 0.452652
v -0.500000 0.123031 -0.484848
v 0.500000 0.123031 -0.484848
v -0.500000 -0.189469 -0.422348
v 0.500000 -0.189469 -0.422348
v 0.500000 -0.189469 -0.484848
v -0.500000 -0.189469 -0.484848
v 0.500000 -0.501969 -0.422348
v -0.500000 -0.501969 -0.422348
v -0.437500 1.123031 0.452652
v 0.437500 1.123031 0.452652
v 0.437500 1.123031 0.015152
v -0.437500 1.123031 0.015152
v 0.437500 0.498031 0.452652
v -0.437500 0.498031 0.452652
v -0.437500 0.498031 0.015152
v 0.437500 0.498031 0.015152
v 0.312500 1.123031 0.452652
v 0.500000 1.123031 0.452652
v 0.500000 1.123031 -0.422348
v 0.312500 1.123031 -0.422348
v 0.312500 0.498031 -0.422348
v 0.500000 0.498031 -0.422348
v -0.500000 1.123031 0.452652
v -0.312500 1.123031 0.452652
v -0.312500 1.123031 -0.422348
v -0.500000 1.123031 -0.422348
v -0.500000 0.498031 -0.422348
v -0.312500 0.498031 -0.422348
v 0.500000 0.623031 0.452652
v -0.500000 0.623031 0.452652
v -0.500000 0.623031 -0.422348
v 0.500000 0.623031 -0.422348
v -0.250000 1.373031 0.515152
v 0.250000 1.373031 0.515152
v 0.250000 1.373031 0.015152
v -0.250000 1.373031 0.015152
v 0.250000 -0.501969 0.515152
v -0.250000 -0.501969 0.515152
v -0.250000 -0.501969 0.015152
v 0.250000 -0.501969 0.015152
vt 0.500000 -0.000000
vt 0.500000 0.250000
vt 0.453125 0.250000
vt 0.453125 -0.000000
vt 0.046875 -0.000000
vt 0.046875 0.250000
vt -0.000000 0.250000
vt -0.000000 -0.000000
vt 0.500000 -0.000000
vt 0.500000 0.250000
vt 0.265625 0.250000
vt 0.265625 -0.000000
vt 0.234375 0.250000
vt 0.234375 0.500000
vt -0.000000 0.500000
vt -0.000000 0.250000
vt 0.296875 -0.000000
vt 0.296875 0.250000
vt 0.250000 0.250000
vt 0.250000 -0.000000
vt 0.250000 -0.000000
vt 0.250000 0.250000
vt 0.203125 0.250000
vt 0.203125 -0.000000
vt 0.500000 0.250000
vt 0.500000 0.500000
vt 0.265625 0.500000
vt 0.265625 0.250000
vt 0.484375 -0.000000
vt 0.484375 0.250000
vt 0.375000 0.468750
vt 0.125000 0.468750
vt 0.125000 0.234375
vt 0.375000 0.234375
vt 0.500000 0.015625
vt 0.750000 0.015625
vt 0.750000 0.250000
vt 0.500000 0.250000
vt 0.375000 0.250000
vt 0.375000 0.500000
vt 0.125000 0.500000
vt 0.125000 0.250000
vt 0.500000 0.250000
vt 0.750000 0.250000
vt 0.750000 0.484375
vt 0.500000 0.484375
vt 0.375000 0.734375
vt 0.125000 0.734375
vt 0.125000 0.500000
vt 0.375000 0.500000
vt 0.250000 0.156250
vt -0.000000 0.156250
vt 0.250000 0.078125
vt -0.000000 0.078125
vt -0.000000 0.062500
vt 0.250000 0.062500
vt 0.250000 -0.000000
vt 0.250000 0.078125
vt 0.000000 0.078125
vt 0.000000 -0.000000
vt 0.250000 0.078125
vt -0.000000 0.078125
vt 0.015625 0.390625
vt 0.500000 0.390625
vt 0.500000 0.500000
vt 0.015625 0.500000
vt 0.984375 0.593750
vt 0.984375 0.750000
vt 0.765625 0.750000
vt 0.765625 0.593750
vt 0.359375 0.562500
vt 0.359375 0.718750
vt 0.140625 0.718750
vt 0.140625 0.562500
vt 1.000000 0.593750
vt 1.000000 0.750000
vt 0.953125 0.750000
vt 0.953125 0.593750
vt 0.546875 0.500000
vt 0.546875 0.656250
vt 0.500000 0.656250
vt 0.500000 0.500000
vt 0.968750 0.593750
vt 0.968750 0.750000
vt 0.750000 0.750000
vt 0.750000 0.593750
vt 0.218750 0.343750
vt 0.218750 0.500000
vt -0.000000 0.500000
vt -0.000000 0.343750
vt 0.796875 0.593750
vt 0.796875 0.750000
vt 0.750000 0.750000
vt 0.750000 0.593750
vt 0.750000 0.500000
vt 0.750000 0.656250
vt 0.703125 0.656250
vt 0.703125 0.500000
vt 0.500000 0.343750
vt 0.500000 0.500000
vt 0.281250 0.500000
vt 0.281250 0.343750
vt 1.000000 0.593750
vt 1.000000 0.750000
vt 0.781250 0.750000
vt 0.781250 0.593750
vt 0.500000 0.015625
vt 0.750000 0.015625
vt 0.750000 0.234375
vt 0.500000 0.234375
vt 0.125000 0.296875
vt 0.375000 0.296875
vt 0.375000 0.515625
vt 0.125000 0.515625
vt 0.750000 0.531250
vt 0.500000 0.531250
vt 0.750000 0.593750
vt 0.750000 0.468750
vt 0.875000 0.468750
vt 0.875000 0.593750
vt 0.562500 0.000000
vt 0.687500 0.000000
vt 0.687500 0.125000
vt 0.562500 0.125000
vt 1.000000 -0.000000
vt 1.000000 0.468750
vt 0.875000 0.468750
vt 0.875000 -0.000000
vt 0.312500 0.312500
vt 0.312500 0.781250
vt 0.171875 0.781250
vt 0.171875 0.312500
vt 1.000000 0.000000
vt 1.000000 0.468750
vt 0.875000 0.468750
vt 0.875000 0.000000
vt 1.000000 0.000000
vt 1.000000 0.468750
vt 0.875000 0.468750
vt 0.875000 0.000000
vn 0.0000 0.0000 1.0000
vn 0.0000 0.0000 -1.0000
vn 1.0000 0.0000 0.0000
vn -1.0000 -0.0000 0.0000
vn 0.0000 1.0000 -0.0000
vn 0.0000 -0.7071 0.7071
vn 0.0000 -1.0000 0.0000
vn -0.0000 0.7071 0.7071
usemtl default_obsidian.png
s 1
f 5/1/1 2/2/1 1/3/1 6/4/1
f 7/5/2 4/6/2 3/7/2 8/8/2
f 8/9/3 3/10/3 2/11/3 5/12/3
f 6/13/4 1/14/4 4/15/4 7/16/4
f 13/17/1 10/18/1 9/19/1 14/20/1
f 15/21/2 12/22/2 11/23/2 16/24/2
f 16/25/3 11/26/3 10/27/3 13/28/3
f 14/29/4 9/30/4 12/22/4 15/21/4
f 17/31/5 18/32/5 19/33/5 20/34/5
f 5/35/6 14/36/6 15/37/7 8/38/7
f 5/1/6 2/2/8 9/19/8 14/20/6
f 23/39/2 22/40/2 21/41/2 24/42/2
f 9/43/8 2/44/8 3/45/5 12/46/5
f 25/47/7 26/48/7 27/49/7 28/50/7
f 27/51/2 12/22/2 3/7/2 28/52/2
f 29/53/5 30/54/5 31/55/5 32/56/5
f 33/57/1 30/58/1 29/59/1 34/60/1
f 15/21/2 32/61/2 31/62/2 8/8/2
f 39/63/7 40/64/7 41/65/7 42/66/7
f 39/67/1 36/68/1 35/69/1 40/70/1
f 41/71/2 38/72/2 37/73/2 42/74/2
f 2/75/1 44/76/1 43/77/1 1/78/1
f 47/79/2 46/80/2 45/81/2 48/82/2
f 48/83/3 45/84/3 44/85/3 2/86/3
f 1/87/4 43/88/4 46/89/4 47/90/4
f 10/91/1 50/92/1 49/93/1 9/94/1
f 53/95/2 52/96/2 51/97/2 54/98/2
f 54/99/3 51/100/3 50/101/3 10/102/3
f 9/103/4 49/104/4 52/105/4 53/106/4
f 49/107/5 44/108/5 45/109/5 52/110/5
f 55/111/7 56/112/7 57/113/7 58/114/7
f 57/115/2 52/96/2 45/81/2 58/116/2
f 59/117/5 60/118/5 61/119/5 62/120/5
f 63/121/7 64/122/7 65/123/7 66/124/7
f 63/125/1 60/126/1 59/127/1 64/128/1
f 65/129/2 62/130/2 61/131/2 66/132/2
f 66/133/3 61/134/3 60/135/3 63/136/3
f 64/137/4 59/138/4 62/139/4 65/140/4
